<svg id="Layer_1" data-name="Layer 1" xmlns="http://www.w3.org/2000/svg" viewBox="0 0 41 52"><defs><style>.cls-1{fill:#ffd25b;}</style></defs><title>Artboard 15</title><rect class="cls-1" x="11.78" y="4.81" width="16.12" height="6.03"/><rect x="17.56" y="20.25" width="13.71" height="1"/><rect x="17.56" y="23.35" width="7.51" height="1"/><path d="M15.5,19.38l-.7-.71-1.12,1.08a3.49,3.49,0,0,0-2.44-1,3.54,3.54,0,1,0,3.54,3.53,3.48,3.48,0,0,0-.48-1.75ZM13.78,22.3A2.54,2.54,0,1,1,13,20.45l-1.72,1.68-.75-.77-.72.69,1.46,1.5,2.32-2.28A2.57,2.57,0,0,1,13.78,22.3Z"/><rect x="17.56" y="32.8" width="13.71" height="1"/><rect x="17.56" y="35.9" width="7.51" height="1"/><path d="M15.5,31.93l-.7-.71L13.68,32.3a3.5,3.5,0,0,0-2.44-1,3.54,3.54,0,1,0,3.54,3.54,3.48,3.48,0,0,0-.48-1.75Zm-1.72,2.92A2.56,2.56,0,1,1,13,33l-1.72,1.68-.75-.77-.72.69,1.46,1.49,2.32-2.27A2.54,2.54,0,0,1,13.78,34.85Z"/><path d="M28.9,6V3.81H24.18a4,4,0,0,0-7.75,0H10.78V6H1.87V50.92H39.54V6Zm-8.59-3.2a2,2,0,0,1,1.74,1H18.57A2,2,0,0,1,20.31,2.79Zm-7.53,3H26.9v4H12.78ZM37.54,48.92H3.87V8h6.91v3.85H28.9V8h8.64Z"/><path d="M8.08,50a.52.52,0,0,1,.73,0h0m-1.44-.2A.49.49,0,0,1,7,49.68.51.51,0,1,1,7.74,49h0a.51.51,0,0,1,0,.73A.52.52,0,0,1,7.38,49.84ZM6.3,48.77a.51.51,0,0,1-.36-.15.52.52,0,0,1,0-.74.51.51,0,0,1,.72,0h0a.52.52,0,0,1,0,.73A.51.51,0,0,1,6.3,48.77ZM5.23,47.69a.49.49,0,0,1-.37-.16.51.51,0,1,1,.73-.72h0a.52.52,0,0,1,0,.73A.5.5,0,0,1,5.23,47.69ZM4.16,46.62a.51.51,0,0,1-.37-.15.53.53,0,0,1,0-.74.52.52,0,0,1,.72,0h0a.52.52,0,0,1,0,.73A.51.51,0,0,1,4.16,46.62Zm-.71-2h0a.53.53,0,0,1,0,.73"/><path d="M4.56,50a.52.52,0,0,1,0-.74.51.51,0,0,1,.72,0h0a.52.52,0,0,1,0,.73m-1.44-.93A.49.49,0,0,1,3.48,49a.51.51,0,1,1,.73-.72h0a.52.52,0,0,1,0,.73A.5.5,0,0,1,3.85,49.11Z"/><path d="M27.37,46.19a.51.51,0,0,0-.72,0,.53.53,0,0,0,.36.9.49.49,0,0,0,.35-.15.5.5,0,0,0,0-.72Z"/><path d="M28.44,47.25a.52.52,0,1,0-.72.74.51.51,0,0,0,.36.15.53.53,0,0,0,.37-.15.52.52,0,0,0,0-.73Z"/><path d="M26.29,45.1a.52.52,0,1,0-.36.89.51.51,0,0,0,.37-.15.52.52,0,0,0,0-.73Z"/><path d="M30.58,49.4a.51.51,0,0,0-.72,0h.72Z"/><path d="M29.52,48.33a.51.51,0,0,0-.72,0,.52.52,0,0,0,.36.89.49.49,0,0,0,.35-.14.51.51,0,0,0,0-.73Z"/><path d="M25.21,44a.51.51,0,0,0-.72,0,.53.53,0,0,0,0,.74.51.51,0,0,0,.36.15.55.55,0,0,0,.37-.15.52.52,0,0,0,0-.73Z"/><path d="M24.14,43a.5.5,0,0,0-.72,0,.52.52,0,0,0,0,.73.51.51,0,0,0,.37.15.51.51,0,0,0,.36-.15.52.52,0,0,0,0-.73Z"/><path d="M23.07,41.88a.52.52,0,0,0-.72.74.51.51,0,0,0,.36.15.53.53,0,0,0,.37-.15.52.52,0,0,0,0-.73Z"/><path d="M10.54,49.68a.51.51,0,0,1,.72,0h0m-1.44-.2a.51.51,0,0,1-.36-.15.52.52,0,1,1,.72-.74h0a.52.52,0,0,1,0,.73A.53.53,0,0,1,9.83,49.49ZM8.76,48.42a.53.53,0,0,1-.37-.15.52.52,0,0,1,0-.73.51.51,0,0,1,.72,0h0a.52.52,0,0,1,0,.73A.51.51,0,0,1,8.76,48.42ZM7.68,47.35a.5.5,0,0,1-.35-.15.51.51,0,0,1,0-.73.5.5,0,0,1,.72,0H8a.52.52,0,0,1,0,.73A.55.55,0,0,1,7.68,47.35ZM6.61,46.27A.52.52,0,1,1,7,45.38H7a.5.5,0,0,1,0,.73A.51.51,0,0,1,6.61,46.27ZM5.54,45.2a.54.54,0,0,1-.36-.14.53.53,0,0,1,0-.74.51.51,0,0,1,.72,0h0a.51.51,0,0,1,0,.73A.54.54,0,0,1,5.54,45.2ZM4.46,44.12A.51.51,0,0,1,4.1,44a.52.52,0,0,1,.72-.74h0a.52.52,0,0,1,0,.73A.53.53,0,0,1,4.46,44.12Zm-.73-2h0a.51.51,0,0,1,0,.73"/><path d="M38,41.33a.46.46,0,0,1-.35-.14.52.52,0,0,1,0-.73.5.5,0,0,1,.72,0h0a.51.51,0,0,1,0,.72A.49.49,0,0,1,38,41.33Z"/><path d="M37.7,43.83a.51.51,0,0,1-.36-.15.52.52,0,1,1,.72-.74h0a.52.52,0,0,1,0,.73A.51.51,0,0,1,37.7,43.83Zm-1.07-1.07a.48.48,0,0,1-.36-.16.51.51,0,1,1,.71-.73h0a.49.49,0,0,1,0,.72A.48.48,0,0,1,36.63,42.76Z"/><path d="M8.34,44a.52.52,0,1,0,0,.74.5.5,0,0,0,0-.73Z"/><path d="M7.26,42.88a.51.51,0,1,0-.34.9.54.54,0,0,0,.37-.16.52.52,0,0,0,0-.73Z"/><path d="M9.42,45a.51.51,0,1,0-.72.73.51.51,0,0,0,.36.15.51.51,0,0,0,.37-.15.51.51,0,0,0,0-.72Z"/><path d="M6.2,41.81a.7.7,0,0,0-.16-.1h-.4a.45.45,0,0,0-.17.11.52.52,0,0,0,0,.73.51.51,0,0,0,.36.15.53.53,0,0,0,.37-.15.52.52,0,0,0,0-.73Z"/><path d="M13,49.34h.72A.51.51,0,0,0,13,49.34Z"/><path d="M12.64,48.26a.51.51,0,0,0-.72,0,.53.53,0,0,0,0,.74.51.51,0,0,0,.37.15.51.51,0,0,0,.36-.15.52.52,0,0,0,0-.73Z"/><path d="M11.57,47.18a.52.52,0,0,0-.72.74.51.51,0,0,0,.36.15.53.53,0,0,0,.37-.15.52.52,0,0,0,0-.73Z"/><path d="M10.49,46.11a.52.52,0,0,0-.72,0,.52.52,0,0,0,.37.89.51.51,0,0,0,.36-.15.52.52,0,0,0,0-.73Z"/><path d="M11.87,44.69a.51.51,0,0,0-.72,0,.52.52,0,0,0,.37.89.51.51,0,0,0,.36-.15.52.52,0,0,0,0-.73Z"/><path d="M10.8,43.61a.52.52,0,0,0-.72.74.51.51,0,0,0,.36.15.51.51,0,0,0,.37-.15.52.52,0,0,0,0-.73Z"/><path d="M9.72,42.54a.52.52,0,1,0,0,.74.5.5,0,0,0,0-.73Z"/><path d="M7.8,41.71a.52.52,0,0,0,.14.5.51.51,0,0,0,.36.15.54.54,0,0,0,.37-.16.5.5,0,0,0,.11-.49Z"/><path d="M16.16,49a.5.5,0,0,0-.72,0,.51.51,0,0,0,0,.73.49.49,0,0,0,.35.14.51.51,0,0,0,.36-.88Z"/><path d="M15.09,47.91a.52.52,0,1,0,0,.74.5.5,0,0,0,0-.73Z"/><path d="M13,45.76a.52.52,0,0,0-.72.74.51.51,0,0,0,.36.15A.53.53,0,0,0,13,46.5a.52.52,0,0,0,0-.73Z"/><path d="M14,46.84a.51.51,0,0,0-.72,0,.53.53,0,0,0,0,.74.51.51,0,0,0,.37.15.51.51,0,0,0,.36-.15.52.52,0,0,0,0-.73Z"/><path d="M14.33,44.34a.52.52,0,0,0-.72.74.51.51,0,0,0,.36.15.53.53,0,0,0,.37-.15.52.52,0,0,0,0-.73Z"/><path d="M13.25,43.27a.51.51,0,0,0-.72,0,.52.52,0,0,0,.37.89.51.51,0,0,0,.36-.15.52.52,0,0,0,0-.73Z"/><path d="M15.4,45.42a.51.51,0,0,0-.72,0,.52.52,0,0,0,0,.73.49.49,0,0,0,.37.16.48.48,0,0,0,.36-.16.51.51,0,0,0,0-.72Z"/><path d="M10.29,41.71a.42.42,0,0,0,.09.14.49.49,0,0,0,.37.16.52.52,0,0,0,.35-.14.61.61,0,0,0,.12-.16Z"/><path d="M12.18,42.19a.52.52,0,0,0-.72.74.51.51,0,0,0,.36.15.51.51,0,0,0,.37-.15.52.52,0,0,0,0-.73Z"/><path d="M18.62,48.64a.51.51,0,0,0-.72,0,.52.52,0,0,0,.37.89.51.51,0,0,0,.36-.15.52.52,0,0,0,0-.73Z"/><path d="M19,49.72h.73A.52.52,0,0,0,19,49.72Z"/><path d="M17.55,47.56a.52.52,0,1,0-.72.74.51.51,0,0,0,.36.15.51.51,0,0,0,.37-.15.52.52,0,0,0,0-.73Z"/><path d="M16.47,46.49a.5.5,0,0,0-.72,0,.52.52,0,0,0,.73.73.5.5,0,0,0,0-.73Z"/><path d="M16.78,44a.5.5,0,0,0-.72,0,.52.52,0,0,0,0,.73.51.51,0,0,0,.37.15.51.51,0,0,0,.36-.87Z"/><path d="M17.85,45.07a.51.51,0,0,0-.72,0,.52.52,0,0,0,0,.74.51.51,0,0,0,.72,0,.52.52,0,0,0,0-.73Z"/><path d="M14.63,41.85a.49.49,0,0,0-.31-.14h-.1a.49.49,0,0,0-.31.14.52.52,0,0,0,.37.89.51.51,0,0,0,.36-.15.52.52,0,0,0,0-.73Z"/><path d="M15.71,42.92a.52.52,0,0,0-.72.74.51.51,0,0,0,.36.15.53.53,0,0,0,.37-.15.52.52,0,0,0,0-.73Z"/><path d="M20,47.22a.51.51,0,0,0-.72,0,.52.52,0,0,0,.37.89A.51.51,0,0,0,20,48a.52.52,0,0,0,0-.73Z"/><path d="M21.43,49.37h.72A.51.51,0,0,0,21.43,49.37Z"/><path d="M21.08,48.29a.51.51,0,0,0-.73,0,.52.52,0,0,0,0,.73.51.51,0,0,0,.36.15.53.53,0,0,0,.37-.15.52.52,0,0,0,0-.73Z"/><path d="M18.93,46.14a.52.52,0,0,0-.72.74.51.51,0,0,0,.36.15.51.51,0,0,0,.37-.15.52.52,0,0,0,0-.73Z"/><path d="M19.23,43.65a.51.51,0,0,0-.72,0,.52.52,0,0,0,0,.74.51.51,0,0,0,.72,0,.52.52,0,0,0,0-.73Z"/><path d="M18.16,42.57a.52.52,0,0,0-.72.74.51.51,0,0,0,.37.15.51.51,0,0,0,.36-.15.52.52,0,0,0,0-.73Z"/><path d="M20.31,44.72a.52.52,0,0,0-.72.74.51.51,0,0,0,.36.15.53.53,0,0,0,.37-.15.52.52,0,0,0,0-.73Z"/><path d="M16.24,41.71a.53.53,0,0,0,.13.53.51.51,0,0,0,.36.15.53.53,0,0,0,.37-.15.5.5,0,0,0,.11-.53Z"/><path d="M21.38,45.8a.51.51,0,0,0-.72,0,.52.52,0,0,0,0,.73.5.5,0,0,0,.37.16.48.48,0,0,0,.36-.16.51.51,0,0,0,0-.72Z"/><path d="M24.59,49a.51.51,0,0,0-.72,0,.52.52,0,0,0,.38.88.52.52,0,0,0,.37-.16.51.51,0,0,0,0-.73Z"/><path d="M23.53,47.94a.52.52,0,0,0-.72.74.51.51,0,0,0,.37.15.51.51,0,0,0,.36-.15.52.52,0,0,0,0-.73Z"/><path d="M22.46,46.87a.52.52,0,1,0-.72.74.51.51,0,0,0,.36.15.55.55,0,0,0,.37-.15.52.52,0,0,0,0-.73Z"/><path d="M20.61,42.23a.51.51,0,0,0-.72,0,.52.52,0,0,0,0,.74.51.51,0,0,0,.72,0,.52.52,0,0,0,0-.73Z"/><path d="M21.69,43.3a.51.51,0,0,0-.73,0A.52.52,0,0,0,21,44a.51.51,0,0,0,.36.15A.51.51,0,0,0,21.7,44a.52.52,0,0,0,0-.73Z"/><path d="M18.7,41.71a.62.62,0,0,0,.11.17.51.51,0,0,0,.38.16.49.49,0,0,0,.35-.14.39.39,0,0,0,.12-.19Z"/><path d="M22.76,44.38a.51.51,0,0,0-.72,0,.52.52,0,0,0,0,.73.54.54,0,0,0,.37.16.52.52,0,0,0,.36-.16.51.51,0,0,0,0-.72Z"/><path d="M23.84,45.45a.51.51,0,0,0-.73,0,.52.52,0,0,0,0,.73.51.51,0,0,0,.36.15.53.53,0,0,0,.37-.15.52.52,0,0,0,0-.73Z"/><path d="M27.06,48.67a.52.52,0,0,0-.72.74.51.51,0,0,0,.36.15.53.53,0,0,0,.37-.15.52.52,0,0,0,0-.73Z"/><path d="M26,47.6a.51.51,0,0,0-.72,0,.52.52,0,0,0,0,.74.51.51,0,0,0,.72,0,.52.52,0,0,0,0-.73Z"/><path d="M27.41,49.75h.72A.5.5,0,0,0,27.41,49.75Z"/><path d="M24.91,46.52a.52.52,0,0,0-.72.74.51.51,0,0,0,.37.15.51.51,0,0,0,.36-.15.52.52,0,0,0,0-.73Z"/><path d="M27.17,43.25a.52.52,0,1,0-.36.89.51.51,0,0,0,.37-.15.52.52,0,0,0,0-.73Z"/><path d="M24.21,41.71a.6.6,0,0,0,.09.13.53.53,0,0,0,.37.15.51.51,0,0,0,.36-.15.38.38,0,0,0,.09-.13Z"/><path d="M29.33,45.41a.52.52,0,1,0-.74.72.5.5,0,0,0,.37.16.54.54,0,0,0,.36-.14.53.53,0,0,0,0-.73Z"/><path d="M26.1,42.18a.52.52,0,0,0-.73,0,.53.53,0,0,0,0,.74.51.51,0,0,0,.72,0,.5.5,0,0,0,0-.73Z"/><path d="M28.24,44.33a.51.51,0,0,0-.72,0,.52.52,0,0,0,.37.89.51.51,0,0,0,.36-.15.52.52,0,0,0,0-.73Z"/><path d="M32.9,49.69l.73,0h0A.51.51,0,0,0,32.9,49.69Z"/><path d="M30.39,46.48a.5.5,0,0,0-.72,0,.52.52,0,0,0,0,.73.51.51,0,0,0,.37.15.51.51,0,0,0,.36-.15.52.52,0,0,0,0-.73Z"/><path d="M32.54,48.62a.52.52,0,1,0-.36.89.51.51,0,0,0,.37-.15.52.52,0,0,0,0-.73Z"/><path d="M31.47,47.56a.5.5,0,0,0-.72,0,.51.51,0,0,0,0,.73.52.52,0,0,0,.73,0,.52.52,0,0,0,0-.73Z"/><path d="M29.62,42.91a.51.51,0,0,0-.72,0,.52.52,0,0,0,0,.73.5.5,0,0,0,.37.16.48.48,0,0,0,.36-.16.51.51,0,0,0,0-.72Z"/><path d="M30.71,44A.51.51,0,0,0,30,44a.52.52,0,0,0,0,.73.5.5,0,0,0,.37.16.54.54,0,0,0,.36-.14.53.53,0,0,0,0-.73Z"/><path d="M28.55,41.83a.57.57,0,0,0-.23-.12h-.25a.47.47,0,0,0-.24.13.52.52,0,0,0,.73.73.52.52,0,0,0,0-.73Z"/><path d="M31.77,45.05a.51.51,0,0,0-.72,0,.52.52,0,0,0,0,.73.51.51,0,0,0,.37.15.51.51,0,0,0,.36-.15.52.52,0,0,0,0-.73Z"/><path d="M35.33,49.36h.73A.53.53,0,0,0,35.33,49.36Z"/><path d="M35,48.29a.51.51,0,0,0-.72,0,.53.53,0,0,0,.36.9A.49.49,0,0,0,35,49a.5.5,0,0,0,0-.72Z"/><path d="M33.92,47.2a.52.52,0,1,0-.36.89.51.51,0,0,0,.37-.15.52.52,0,0,0,0-.73Z"/><path d="M32.85,46.14a.51.51,0,0,0-.72,0,.53.53,0,0,0,.36.9.54.54,0,0,0,.36-.14.52.52,0,0,0,0-.73Z"/><path d="M32.07,42.55a.52.52,0,0,0-.73,0,.53.53,0,0,0,0,.74.52.52,0,0,0,.73,0,.53.53,0,0,0,0-.73Z"/><path d="M30.16,41.71a.5.5,0,0,0,.49.66.51.51,0,0,0,.36-.15.49.49,0,0,0,.12-.51Z"/><path d="M33.15,43.63a.51.51,0,0,0-.72,0,.52.52,0,0,0,0,.73.51.51,0,0,0,.37.15.51.51,0,0,0,.36-.15.52.52,0,0,0,0-.73Z"/><path d="M37.45,47.93a.52.52,0,0,0-.73,0,.53.53,0,0,0,0,.74.51.51,0,0,0,.36.15.53.53,0,0,0,.37-.15.52.52,0,0,0,0-.73Z"/><path d="M34.22,44.7a.51.51,0,1,0-.7.75.49.49,0,0,0,.35.15.52.52,0,0,0,.36-.89Z"/><path d="M36.37,46.86a.5.5,0,0,0-.72,0,.52.52,0,0,0,0,.73.53.53,0,0,0,.37.15.51.51,0,0,0,.36-.87Z"/><path d="M35.3,45.78a.52.52,0,1,0-.36.89.51.51,0,0,0,.37-.15.52.52,0,0,0,0-.73Z"/><path d="M34.53,42.21a.51.51,0,0,0-.72,0,.52.52,0,0,0,0,.73.51.51,0,0,0,.37.15.51.51,0,0,0,.36-.15.52.52,0,0,0,0-.73Z"/><path d="M32.63,41.71a.39.39,0,0,0,.1.16.52.52,0,0,0,.73,0,.94.94,0,0,0,.12-.18Z"/><path d="M36.68,44.36a.52.52,0,1,0-.36.89.51.51,0,0,0,.37-.15.52.52,0,0,0,0-.73Z"/><path d="M35.61,43.3a.51.51,0,0,0-.72,0,.53.53,0,0,0,.36.9.52.52,0,0,0,.37-.87Z"/><path d="M37.76,45.44a.51.51,0,1,0-.73.72.49.49,0,0,0,.37.16.47.47,0,0,0,.35-.14.51.51,0,0,0,0-.73Z"/><path d="M38.9,34.8a.51.51,0,0,1-.38-.16.52.52,0,0,1,0-.73.5.5,0,0,1,.72,0h0a.51.51,0,0,1,0,.73A.48.48,0,0,1,38.9,34.8Z"/></svg>