<svg width="803" height="345" viewBox="0 0 803 345" xmlns="http://www.w3.org/2000/svg">
    <g transform="translate(22 13)" fill="none" fill-rule="evenodd">
        <path d="M27 164h700" stroke="#002E4C" stroke-width="3" stroke-linecap="round"/>
        <path d="M141 254.5c-5.5-29.066 64.5-44 100-55.5S91.365 167.292 91.365 167.292c-10.97-1.266-10.912-2.292.14-2.292H523.5s134.5 11 115 34-129 12.5-122.5 28.5 43.5 14 64 27S560.5 319 378.5 319s-232-35.434-237.5-64.5z" fill="#E6ECF4"/>
        <ellipse fill="#B4C3D8" cx="369.5" cy="291.5" rx="105.5" ry="7.5"/>
        <path d="M425.18 262.162H317.87L259 221.195l38.317-82.745c1.394-3.01 5.205-5.45 8.524-5.45H432.7c3.315 0 7.14 2.43 8.546 5.435l38.015 81.195-54.08 42.532z" stroke="#002E4C" stroke-width="3" stroke-linecap="round" stroke-linejoin="round" fill="#E4EAF4"/>
        <path d="M425.18 262.162H317.87L259 221.195l39.58-85.47c.696-1.505 1.55-1.41 1.905.212l6.73 30.703c.71 3.236 3.41 7.493 6.04 9.514l111.926 86.008z" fill="#D8DFEB"/>
        <path d="M425.18 262.162H317.87L259 221.195l38.317-82.745c1.394-3.01 5.205-5.45 8.524-5.45H432.7c3.315 0 7.14 2.43 8.546 5.435l38.015 81.195-54.08 42.532z" stroke="#002E4C" stroke-width="3" stroke-linecap="round" stroke-linejoin="round"/>
        <path d="M282 224.58l24.103-56.06c1.31-3.05 5.063-5.52 8.38-5.52H424.43c3.318 0 7.09 2.456 8.433 5.493l25.458 57.653-88.44 24.528L282 224.58z" stroke="#002E4C" stroke-width="3" stroke-linecap="round" stroke-linejoin="round" fill="#F5F6F8"/>
        <path d="M406.412 220.524c-3.312.024-7.292 2.39-8.9 5.304l-5.567 10.09H347.16l-5.51-9.7c-1.636-2.88-5.65-5.196-8.97-5.173l-73.68.52 10.544 62.18c.554 3.272 3.694 5.924 7.006 5.924h186.288c3.315 0 6.408-2.647 6.914-5.94l9.79-63.73-73.13.524z" stroke="#002E4C" stroke-width="3" stroke-linecap="round" stroke-linejoin="round" fill="#BACADE"/>
        <path d="M271.912 221l-12.912.09 10.544 62.18c.554 3.272 3.7 5.925 7.008 5.925H331L271.912 221z" fill="#FFF" opacity=".1"/>
        <path d="M336.062 81.833c.124.42.452.75.872.872l4.905 1.445c1.232.363 1.232 2.11 0 2.473l-4.906 1.445c-.42.124-.748.452-.872.873l-1.444 4.908c-.364 1.233-2.11 1.233-2.472 0L330.7 88.94c-.122-.42-.45-.748-.87-.872l-4.905-1.445c-1.233-.363-1.233-2.11 0-2.473l4.905-1.445c.42-.123.748-.452.87-.872l1.446-4.908c.363-1.233 2.108-1.233 2.472 0l1.444 4.908z" fill="#0176FF"/>
        <path d="M330.84 39.422l.657 2.236c.056.192.206.342.397.398l2.236.66c.562.164.562.96 0 1.125l-2.236.66c-.19.056-.34.206-.397.397l-.658 2.237c-.167.562-.963.562-1.128 0l-.658-2.237c-.056-.19-.206-.34-.398-.397l-2.235-.66c-.56-.164-.56-.96 0-1.125l2.236-.66c.192-.055.342-.205.398-.397l.658-2.236c.165-.563.96-.563 1.127 0M369.84 110.422l.657 2.236c.056.192.206.342.397.398l2.236.66c.562.164.562.96 0 1.125l-2.236.66c-.19.056-.34.206-.397.397l-.658 2.237c-.167.562-.963.562-1.128 0l-.658-2.237c-.056-.19-.206-.34-.398-.397l-2.235-.66c-.56-.164-.56-.96 0-1.125l2.236-.66c.192-.055.342-.205.398-.397l.658-2.236c.165-.563.96-.563 1.127 0" fill="#B4C3D8"/>
        <path d="M399.84 71.422l.657 2.236c.056.192.206.342.397.398l2.236.66c.562.164.562.96 0 1.125l-2.236.66c-.19.056-.34.206-.397.397l-.658 2.237c-.167.562-.963.562-1.128 0l-.658-2.237c-.056-.19-.206-.34-.398-.397l-2.235-.66c-.56-.164-.56-.96 0-1.125l2.236-.66c.192-.055.342-.205.398-.397l.658-2.236c.165-.563.96-.563 1.127 0" fill="#0176FF"/>
        <path d="M371.087 38.705l1.1 3.738c.094.32.344.57.664.664l3.738 1.1c.938.277.938 1.608 0 1.885l-3.737 1.1c-.32.094-.57.344-.663.665l-1.1 3.738c-.276.94-1.606.94-1.883 0l-1.1-3.738c-.094-.32-.344-.57-.664-.665l-3.736-1.1c-.94-.277-.94-1.608 0-1.884l3.736-1.1c.32-.095.57-.345.664-.665l1.1-3.738c.277-.94 1.607-.94 1.883 0M416.087 85.705l1.1 3.738c.094.32.344.57.664.664l3.738 1.1c.938.277.938 1.608 0 1.885l-3.737 1.1c-.32.094-.57.344-.663.665l-1.1 3.738c-.276.94-1.606.94-1.883 0l-1.1-3.738c-.094-.32-.344-.57-.664-.665l-3.736-1.1c-.94-.277-.94-1.608 0-1.884l3.736-1.1c.32-.095.57-.345.664-.665l1.1-3.738c.277-.94 1.607-.94 1.883 0" fill="#B4C3D8"/>
        <path d="M411.523 16.573c.118.4.432.715.833.832l4.686 1.38c1.178.348 1.178 2.017 0 2.364l-4.686 1.38c-.4.117-.715.43-.833.832l-1.38 4.69c-.346 1.177-2.014 1.177-2.36 0l-1.38-4.69c-.12-.4-.432-.715-.834-.833l-4.687-1.38c-1.177-.348-1.177-2.017 0-2.364l4.686-1.38c.4-.118.714-.432.832-.833l1.38-4.69c.347-1.178 2.015-1.178 2.362 0l1.38 4.69z" fill="#0176FF"/>
    </g>
</svg>